<?xml version="1.0" encoding="utf-8"?>
<!-- Generator: Adobe Illustrator 18.1.1, SVG Export Plug-In . SVG Version: 6.00 Build 0)  -->
<svg version="1.1" id="Laag_1" xmlns="http://www.w3.org/2000/svg" xmlns:xlink="http://www.w3.org/1999/xlink" x="0px" y="0px"
	 viewBox="0 0 300 300" enable-background="new 0 0 300 300" xml:space="preserve">
<circle fill="#B32A2D" cx="148.6" cy="152" r="144.5"/>
<path fill="#FFFFFF" d="M148.6,30.5C81.5,30.5,27,84.9,27,152s54.4,121.5,121.5,121.5S270.1,219.1,270.1,152S215.7,30.5,148.6,30.5z
	 M204.9,184.5c-10.9,2.3-21.6,0.3-30.3-4.6c5.2,0.6,10.7,0.3,16.1-0.8c25.9-5.4,42.9-29,37.9-52.7c-1.7-8.2-5.9-14.8-11.6-20.4
	c9.3,6.8,19.8,19.4,20.5,35.2C238.6,161.9,227.4,179.8,204.9,184.5z M177.5,215.4c-7.5,0-14.6-1.3-21.2-3.8c8.3,5,17.1,8.5,27.4,8.5
	c14,0,26.7-5.2,36.4-13.7l0,0l-0.4,0.5c-14.6,20.3-38.4,33.6-65.3,33.6c-44,0-79.7-35.4-80.3-79.2l-0.2,2.2
	c-0.2,2.1-0.2,4.2-0.2,6.3c0,26.2,13.5,49.2,33.8,62.6C78.2,217.4,58,186.9,58,151.7c0-49.9,40.4-90.3,90.3-90.3
	c17.7,0,34.2,5,48.1,13.8c-9.8-5.3-21-8.2-32.9-8.2c-20,0-38.1,8.5-50.8,22c12.6-7.9,27.6-12.4,43.5-12.4c7.1,0,13.9,0.9,20.5,2.6
	c-2.7-0.4-5.5-0.7-8.2-0.7c-29.3,0-53.1,23.8-53.1,53.1c0,11.5,3.7,22.1,9.8,30.7l0,0c0-26.5,13.4-49.9,33.8-63.7
	c-9.4,1-18.5,5-25.7,12.2c-5.1,5.1-8.7,11.2-10.7,17.7c2.2-9.8,7.2-19.1,14.7-26.7c16-16,39.5-20.1,59.3-12.3
	c10.7-4.9,22.5-7.6,34.9-7.6c1.9,0,3.7,0.1,5.6,0.2c-18.6,5.9-34,19.4-42.5,36.7h-0.1c-20.3,0-36.6,16.4-36.6,36.6l0,0l0,0
	c0,22.1,18,40.1,40.1,40.1c19.6,0,36-14.1,39.5-32.7v0.2C233.6,192.8,208.2,215.4,177.5,215.4z"/>
<g>
</g>
<g>
</g>
<g>
</g>
<g>
</g>
<g>
</g>
<g>
</g>
</svg>
